<?xml version="1.0" encoding="utf-8"?>
<!-- Generator: Adobe Illustrator 24.0.0, SVG Export Plug-In . SVG Version: 6.00 Build 0)  -->
<svg version="1.1" id="Calque_1" xmlns="http://www.w3.org/2000/svg" xmlns:xlink="http://www.w3.org/1999/xlink" x="0px" y="0px"
	 viewBox="0 0 842.2 595.6" style="enable-background:new 0 0 842.2 595.6;" xml:space="preserve">
<style type="text/css">
	.st0{fill:none;stroke:#FF0000;stroke-width:0.2835;stroke-linecap:round;stroke-miterlimit:11.3386;}
</style>
<path id="top_outsideCutPath" vector-effect="non-scaling-stroke" class="st0" d="M830.7,11.5h-56V0.1h-78.6v11.3h-78.6V0.1H539
	v11.3h-78.6V0.1h-78.6v11.3h-78.6V0.1h-78.6v11.3H146V0.1H67.4v11.3h-56v89.8H0.1v78.6h11.3v78.6H0.1v78.6h11.3v78.6H0.1v78.6h11.3
	v78.6v11.2h56v11.3H146v-11.3h78.6v11.3h78.6v-11.3h78.6v11.3h78.6v-11.3H539v11.3h78.6v-11.3h78.6v11.3h78.6v-11.3h56v-89.8H842
	v-78.6h-11.3v-78.6H842v-78.6h-11.3v-78.6H842v-78.6h-11.3V22.7V11.5z"/>
</svg>
