<?xml version="1.0" encoding="utf-8"?>
<!-- Generator: Adobe Illustrator 24.0.0, SVG Export Plug-In . SVG Version: 6.00 Build 0)  -->
<svg version="1.1" id="Calque_1" xmlns="http://www.w3.org/2000/svg" xmlns:xlink="http://www.w3.org/1999/xlink" x="0px" y="0px"
	 viewBox="0 0 118.2 220.7" style="enable-background:new 0 0 118.2 220.7;" xml:space="preserve">
<style type="text/css">
	.st0{fill:#FFFFFF;stroke:#FF0000;stroke-miterlimit:10;}
</style>
<polygon class="st0" points="41,173.2 77.2,173.2 68.5,141.8 77.2,110.4 41,110.4 50,141.8 "/>
<polygon class="st0" points="0.7,141.8 36.9,141.8 28.2,110.4 36.9,79 0.7,79 9.7,110.4 "/>
<polygon class="st0" points="80.8,141.8 117.1,141.8 108.4,110.4 117.1,79 80.8,79 89.9,110.4 "/>
<polygon class="st0" points="80.8,63.3 117.1,63.3 108.4,31.9 117.1,0.5 80.8,0.5 89.9,31.9 "/>
<polygon class="st0" points="41,94.7 77.2,94.7 68.5,63.3 77.2,31.9 41,31.9 50,63.3 "/>
<polygon class="st0" points="0.7,63.3 36.9,63.3 28.2,31.9 36.9,0.5 0.7,0.5 9.7,31.9 "/>
<polygon class="st0" points="81.3,220.2 117.5,220.2 108.8,188.8 117.5,157.4 81.3,157.4 90.3,188.8 "/>
<polygon class="st0" points="1.1,220.2 37.3,220.2 28.6,188.8 37.3,157.4 1.1,157.4 10.2,188.8 "/>
</svg>
