<?xml version="1.0" encoding="utf-8"?>
<!-- Generator: Adobe Illustrator 24.0.0, SVG Export Plug-In . SVG Version: 6.00 Build 0)  -->
<svg version="1.1" id="Calque_1" xmlns="http://www.w3.org/2000/svg" xmlns:xlink="http://www.w3.org/1999/xlink" x="0px" y="0px"
	 viewBox="0 0 595.6 348.9" style="enable-background:new 0 0 595.6 348.9;" xml:space="preserve">
<style type="text/css">
	.st0{fill:none;stroke:#FF0000;stroke-width:0.2835;stroke-linecap:round;stroke-miterlimit:11.3386;}
</style>
<path id="front_outsideCutPath" vector-effect="non-scaling-stroke" class="st0" d="M0.1,178.7v45.7h11.3v78.6H0.1v45.7h101.2v-11.3
	h78.6v11.3h78.6v-11.3h78.6v11.3h78.6v-11.3h78.6v11.3h78.6h22.6v-45.7h-11.3v-78.6h11.3v-45.7H494.2v11.3h-78.6v-11.3h-78.6v11.3
	h-78.6v-11.3h-78.6v11.3h-78.6v-11.3H22.7H0.1z"/>
<path id="back_outsideCutPath" vector-effect="non-scaling-stroke" class="st0" d="M0.1,0.1v45.7h11.3v78.6H0.1v45.7h101.2v-11.3
	h78.6v11.3h78.6v-11.3h78.6v11.3h78.6v-11.3h78.6v11.3h78.6h22.6v-45.7h-11.3V45.9h11.3V0.1H494.2v11.3h-78.6V0.1h-78.6v11.3h-78.6
	V0.1h-78.6v11.3h-78.6V0.1H22.7H0.1z"/>
</svg>
