<?xml version="1.0" encoding="utf-8"?>
<!-- Generator: Adobe Illustrator 24.0.0, SVG Export Plug-In . SVG Version: 6.00 Build 0)  -->
<svg version="1.1" id="Calque_1" xmlns="http://www.w3.org/2000/svg" xmlns:xlink="http://www.w3.org/1999/xlink" x="0px" y="0px"
	 viewBox="0 0 842.2 348.9" style="enable-background:new 0 0 842.2 348.9;" xml:space="preserve">
<style type="text/css">
	.st0{fill:none;stroke:#FF0000;stroke-width:0.2835;stroke-linecap:round;stroke-miterlimit:11.3386;}
</style>
<path id="left_outsideCutPath" vector-effect="non-scaling-stroke" class="st0" d="M11.5,178.7v45.7H0.1v78.6h11.3v45.7h56v-11.3
	H146v11.3h78.6v-11.3h78.6v11.3h78.6v-11.3h78.6v11.3H539v-11.3h78.6v11.3h78.6v-11.3h78.6v11.3h56v-45.7H842v-78.6h-11.3v-45.7h-56
	v11.3h-78.6v-11.3h-78.6v11.3H539v-11.3h-78.6v11.3h-78.6v-11.3h-78.6v11.3h-78.6v-11.3H146v11.3H67.4v-11.3H11.5z"/>
<path id="right_outsideCutPath" vector-effect="non-scaling-stroke" class="st0" d="M11.5,0.1v45.7H0.1v78.6h11.3v45.7h56v-11.3H146
	v11.3h78.6v-11.3h78.6v11.3h78.6v-11.3h78.6v11.3H539v-11.3h78.6v11.3h78.6v-11.3h78.6v11.3h56v-45.7H842V45.9h-11.3V0.1h-56v11.3
	h-78.6V0.1h-78.6v11.3H539V0.1h-78.6v11.3h-78.6V0.1h-78.6v11.3h-78.6V0.1H146v11.3H67.4V0.1H11.5z"/>
<circle class="st0" cx="421.1" cy="263.8" r="49.6"/>
</svg>
