<?xml version="1.0" encoding="utf-8"?>
<!-- Generator: Adobe Illustrator 24.0.0, SVG Export Plug-In . SVG Version: 6.00 Build 0)  -->
<svg version="1.1" id="Calque_1" xmlns="http://www.w3.org/2000/svg" xmlns:xlink="http://www.w3.org/1999/xlink" x="0px" y="0px"
	 viewBox="0 0 397.9 145.6" style="enable-background:new 0 0 397.9 145.6;" xml:space="preserve">
<style type="text/css">
	.st0{fill:#FFFFFF;stroke:#FF0000;stroke-miterlimit:10;}
</style>
<path class="st0" d="M382.6,145.1H15.3c-8.2,0-14.8-6.6-14.8-14.8v-115c0-8.2,6.6-14.8,14.8-14.8h367.3c8.2,0,14.8,6.6,14.8,14.8
	v115C397.4,138.5,390.7,145.1,382.6,145.1z"/>
<circle class="st0" cx="198.9" cy="72.8" r="49.6"/>
<g>
	<path d="M340.7,111.3h2.4v1.6h-2.4V111.3z M340.7,113.6h2.4v6.2h-2.4V113.6z"/>
	<path d="M344.3,116.8c0-0.9,0.3-1.7,1-2.3s1.5-0.9,2.6-0.9c1.2,0,2.2,0.4,2.8,1.1c0.5,0.6,0.8,1.3,0.8,2.2c0,1-0.3,1.7-1,2.4
		s-1.5,0.9-2.6,0.9c-1,0-1.8-0.3-2.4-0.8C344.7,118.6,344.3,117.8,344.3,116.8z M346.7,116.8c0,0.6,0.1,1,0.3,1.2s0.5,0.4,0.8,0.4
		c0.3,0,0.6-0.1,0.8-0.4s0.3-0.7,0.3-1.3c0-0.5-0.1-0.9-0.3-1.2s-0.5-0.4-0.8-0.4c-0.3,0-0.6,0.1-0.9,0.4S346.7,116.2,346.7,116.8z"
		/>
	<path d="M352.3,116.8c0-0.9,0.3-1.7,1-2.3s1.5-0.9,2.6-0.9c1.2,0,2.2,0.4,2.8,1.1c0.5,0.6,0.8,1.3,0.8,2.2c0,1-0.3,1.7-1,2.4
		s-1.5,0.9-2.6,0.9c-1,0-1.8-0.3-2.4-0.8C352.7,118.6,352.3,117.8,352.3,116.8z M354.7,116.8c0,0.6,0.1,1,0.3,1.2s0.5,0.4,0.8,0.4
		c0.3,0,0.6-0.1,0.8-0.4s0.3-0.7,0.3-1.3c0-0.5-0.1-0.9-0.3-1.2s-0.5-0.4-0.8-0.4c-0.3,0-0.6,0.1-0.9,0.4S354.7,116.2,354.7,116.8z"
		/>
	<path d="M360.6,113.6h2.2v1c0.3-0.4,0.7-0.7,1-0.9s0.8-0.3,1.2-0.3c0.7,0,1.2,0.2,1.5,0.6s0.6,1,0.6,1.8v4h-2.4v-3.4
		c0-0.4-0.1-0.7-0.2-0.8s-0.3-0.2-0.6-0.2c-0.3,0-0.5,0.1-0.7,0.3s-0.3,0.6-0.3,1.2v3h-2.4V113.6z"/>
	<path d="M375.5,117.3h-4.8c0,0.4,0.1,0.7,0.3,0.9c0.2,0.3,0.5,0.4,0.9,0.4c0.2,0,0.5-0.1,0.7-0.2c0.1-0.1,0.3-0.2,0.4-0.4l2.3,0.2
		c-0.4,0.6-0.8,1.1-1.3,1.3s-1.2,0.4-2.2,0.4c-0.8,0-1.5-0.1-1.9-0.3s-0.9-0.6-1.2-1.1s-0.5-1.1-0.5-1.8c0-1,0.3-1.8,0.9-2.4
		s1.5-0.9,2.6-0.9c0.9,0,1.6,0.1,2.1,0.4s0.9,0.7,1.2,1.2s0.4,1.2,0.4,2V117.3z M373.1,116.2c0-0.5-0.2-0.8-0.4-1s-0.5-0.3-0.8-0.3
		c-0.4,0-0.7,0.2-0.9,0.5c-0.1,0.2-0.2,0.5-0.3,0.8H373.1z"/>
	<path d="M376.6,113.6h2.2v1c0.2-0.4,0.4-0.7,0.7-0.9s0.5-0.2,0.8-0.2c0.4,0,0.7,0.1,1.2,0.3l-0.7,1.7c-0.3-0.1-0.5-0.2-0.7-0.2
		c-0.3,0-0.6,0.1-0.7,0.4c-0.2,0.4-0.4,1-0.4,2v2.1h-2.4V113.6z"/>
</g>
<g>
	<path d="M239.4,127.9h2.7v6.5h4.1v2.1h-6.8V127.9z"/>
	<path d="M247.5,127.9h2.7v8.6h-2.7V127.9z"/>
	<path d="M252.1,127.9h7.1v1.8h-4.5v1.4h4.1v1.8h-4.1v1.7h4.6v1.9h-7.2V127.9z"/>
	<path d="M265.1,133.4v-1.8h4.1v3.7c-0.8,0.5-1.5,0.9-2.1,1.1s-1.3,0.3-2.1,0.3c-1,0-1.9-0.2-2.5-0.5s-1.1-0.9-1.5-1.6
		s-0.5-1.5-0.5-2.4c0-0.9,0.2-1.8,0.6-2.4s1-1.2,1.7-1.6c0.6-0.3,1.4-0.4,2.3-0.4c0.9,0,1.7,0.1,2.1,0.3s0.9,0.4,1.2,0.8
		s0.5,0.8,0.7,1.4l-2.6,0.5c-0.1-0.3-0.3-0.6-0.5-0.7s-0.6-0.3-1-0.3c-0.6,0-1,0.2-1.4,0.6s-0.5,1-0.5,1.9c0,0.9,0.2,1.6,0.5,2
		s0.8,0.6,1.5,0.6c0.3,0,0.6,0,0.8-0.1s0.6-0.2,0.9-0.4v-0.8H265.1z"/>
	<path d="M270.7,127.9h7.1v1.8h-4.5v1.4h4.1v1.8h-4.1v1.7h4.6v1.9h-7.2V127.9z"/>
	<path d="M283.4,127.9h2.7v3h2.9v-3h2.7v8.6H289V133h-2.9v3.5h-2.7V127.9z"/>
	<path d="M298.7,135.1h-3l-0.4,1.4h-2.7l3.2-8.6h2.9l3.2,8.6h-2.8L298.7,135.1z M298.1,133.2l-0.9-3.1l-0.9,3.1H298.1z"/>
	<path d="M308.2,133l2.3,0.7c-0.2,0.7-0.4,1.2-0.7,1.6s-0.8,0.8-1.3,1s-1.1,0.3-1.9,0.3c-0.9,0-1.7-0.1-2.3-0.4
		c-0.6-0.3-1.1-0.7-1.5-1.4s-0.6-1.6-0.6-2.6c0-1.4,0.4-2.5,1.1-3.3c0.8-0.8,1.8-1.1,3.2-1.1c1.1,0,1.9,0.2,2.6,0.7s1.1,1.1,1.4,2
		l-2.3,0.5c-0.1-0.3-0.2-0.5-0.3-0.6c-0.1-0.2-0.3-0.4-0.5-0.5s-0.5-0.2-0.7-0.2c-0.6,0-1.1,0.2-1.4,0.7c-0.2,0.4-0.4,0.9-0.4,1.7
		c0,1,0.1,1.6,0.4,2s0.7,0.5,1.2,0.5c0.5,0,0.9-0.1,1.2-0.4S308.1,133.5,308.2,133z"/>
	<path d="M311.9,127.9h2.7v3.2l2.8-3.2h3.5l-3.1,3.2l3.3,5.3h-3.3l-1.8-3.5l-1.4,1.4v2.1h-2.7V127.9z"/>
	<path d="M321.9,127.9h7.1v1.8h-4.5v1.4h4.1v1.8h-4.1v1.7h4.6v1.9h-7.2V127.9z"/>
	<path d="M330.6,136.5v-8.6h4.4c0.8,0,1.4,0.1,1.9,0.2s0.8,0.4,1,0.8s0.4,0.8,0.4,1.4c0,0.5-0.1,0.9-0.3,1.2s-0.5,0.6-0.8,0.8
		c-0.2,0.1-0.5,0.2-0.9,0.3c0.3,0.1,0.5,0.2,0.7,0.3c0.1,0.1,0.2,0.2,0.4,0.5c0.2,0.2,0.3,0.4,0.4,0.5l1.3,2.5h-3l-1.4-2.6
		c-0.2-0.3-0.3-0.6-0.5-0.7c-0.2-0.1-0.4-0.2-0.7-0.2h-0.2v3.5H330.6z M333.2,131.4h1.1c0.1,0,0.4,0,0.7-0.1c0.2,0,0.3-0.1,0.4-0.3
		s0.2-0.3,0.2-0.5c0-0.3-0.1-0.5-0.3-0.6s-0.5-0.2-1-0.2h-1.2V131.4z"/>
	<path d="M339.4,133.7l2.5-0.2c0.1,0.4,0.2,0.7,0.3,0.9c0.3,0.3,0.7,0.5,1.2,0.5c0.4,0,0.7-0.1,0.9-0.3s0.3-0.4,0.3-0.6
		c0-0.2-0.1-0.4-0.3-0.6s-0.6-0.3-1.4-0.5c-1.2-0.3-2-0.6-2.5-1c-0.5-0.4-0.8-1-0.8-1.7c0-0.4,0.1-0.9,0.4-1.3s0.6-0.7,1.2-0.9
		s1.2-0.3,2.1-0.3c1.1,0,1.9,0.2,2.5,0.6s0.9,1.1,1,1.9l-2.5,0.1c-0.1-0.4-0.2-0.7-0.4-0.8s-0.5-0.3-0.9-0.3c-0.3,0-0.5,0.1-0.7,0.2
		s-0.2,0.3-0.2,0.5c0,0.1,0.1,0.3,0.2,0.4c0.1,0.1,0.4,0.2,0.9,0.3c1.2,0.2,2,0.5,2.5,0.8s0.9,0.6,1.1,1s0.3,0.8,0.3,1.3
		c0,0.6-0.2,1.1-0.5,1.5s-0.7,0.8-1.3,1.1s-1.2,0.4-2.1,0.4c-1.5,0-2.5-0.3-3-0.8S339.5,134.5,339.4,133.7z"/>
	<path d="M348.5,127.9h4.4c1,0,1.7,0.2,2.2,0.7s0.7,1.1,0.7,2c0,0.9-0.3,1.5-0.8,2s-1.3,0.7-2.4,0.7h-1.5v3.2h-2.7V127.9z
		 M351.2,131.6h0.7c0.5,0,0.9-0.1,1.1-0.3s0.3-0.4,0.3-0.7c0-0.3-0.1-0.5-0.3-0.7s-0.5-0.3-1-0.3h-0.8V131.6z"/>
	<path d="M361.5,135.1h-3l-0.4,1.4h-2.7l3.2-8.6h2.9l3.2,8.6h-2.8L361.5,135.1z M360.9,133.2l-0.9-3.1l-0.9,3.1H360.9z"/>
	<path d="M371,133l2.3,0.7c-0.2,0.7-0.4,1.2-0.7,1.6s-0.8,0.8-1.3,1s-1.1,0.3-1.9,0.3c-0.9,0-1.7-0.1-2.3-0.4
		c-0.6-0.3-1.1-0.7-1.5-1.4s-0.6-1.6-0.6-2.6c0-1.4,0.4-2.5,1.1-3.3c0.8-0.8,1.8-1.1,3.2-1.1c1.1,0,1.9,0.2,2.6,0.7s1.1,1.1,1.4,2
		l-2.3,0.5c-0.1-0.3-0.2-0.5-0.3-0.6c-0.1-0.2-0.3-0.4-0.5-0.5s-0.5-0.2-0.7-0.2c-0.6,0-1.1,0.2-1.4,0.7c-0.2,0.4-0.4,0.9-0.4,1.7
		c0,1,0.1,1.6,0.4,2s0.7,0.5,1.2,0.5c0.5,0,0.9-0.1,1.2-0.4S370.9,133.5,371,133z"/>
	<path d="M374.6,127.9h7.1v1.8h-4.5v1.4h4.1v1.8h-4.1v1.7h4.6v1.9h-7.2V127.9z"/>
</g>
</svg>
