<?xml version="1.0" encoding="utf-8"?>
<!-- Generator: Adobe Illustrator 24.0.0, SVG Export Plug-In . SVG Version: 6.00 Build 0)  -->
<svg version="1.1" id="Calque_1" xmlns="http://www.w3.org/2000/svg" xmlns:xlink="http://www.w3.org/1999/xlink" x="0px" y="0px"
	 viewBox="0 0 414.9 468.4" style="enable-background:new 0 0 414.9 468.4;" xml:space="preserve">
<style type="text/css">
	.st0{fill:#FFFFFF;stroke:#FF0000;stroke-miterlimit:10;}
</style>
<rect x="160.7" y="10.2" class="st0" width="68" height="198.4"/>
<rect x="189" y="21.5" class="st0" width="11.3" height="175.7"/>
<rect x="238.7" y="0.5" class="st0" width="175.7" height="147.4"/>
<rect x="238.7" y="320.5" class="st0" width="175.7" height="147.4"/>
<rect x="238.7" y="161.3" class="st0" width="175.7" height="147.4"/>
<rect x="80.6" y="10.2" class="st0" width="68" height="198.4"/>
<rect x="108.9" y="21.5" class="st0" width="11.3" height="175.7"/>
<rect x="0.5" y="10.2" class="st0" width="68" height="198.4"/>
<rect x="28.8" y="21.5" class="st0" width="11.3" height="175.7"/>
<rect x="160.7" y="250.4" class="st0" width="68" height="198.4"/>
<rect x="189" y="261.8" class="st0" width="11.3" height="175.7"/>
<rect x="80.6" y="250.4" class="st0" width="68" height="198.4"/>
<rect x="108.9" y="261.8" class="st0" width="11.3" height="175.7"/>
<rect x="0.5" y="250.4" class="st0" width="68" height="198.4"/>
<rect x="28.8" y="261.8" class="st0" width="11.3" height="175.7"/>
</svg>
