<?xml version="1.0" encoding="utf-8"?>
<!-- Generator: Adobe Illustrator 24.0.0, SVG Export Plug-In . SVG Version: 6.00 Build 0)  -->
<svg version="1.1" id="Calque_1" xmlns="http://www.w3.org/2000/svg" xmlns:xlink="http://www.w3.org/1999/xlink" x="0px" y="0px"
	 viewBox="0 0 842.2 595.6" style="enable-background:new 0 0 842.2 595.6;" xml:space="preserve">
<style type="text/css">
	.st0{fill:none;stroke:#FF0000;stroke-width:0.2835;stroke-linecap:round;stroke-miterlimit:11.3386;}
</style>
<path id="top_outsideCutPath" vector-effect="non-scaling-stroke" class="st0" d="M830.7,11.5h-56V0.1h-78.6v11.3h-78.6V0.1H539
	v11.3h-78.6V0.1h-78.6v11.3h-78.6V0.1h-78.6v11.3H146V0.1H67.4v11.3h-56v89.8H0.1v78.6h11.3v78.6H0.1v78.6h11.3v78.6H0.1v78.6h11.3
	v78.6v11.2h56v11.3H146v-11.3h78.6v11.3h78.6v-11.3h78.6v11.3h78.6v-11.3H539v11.3h78.6v-11.3h78.6v11.3h78.6v-11.3h56v-89.8H842
	v-78.6h-11.3v-78.6H842v-78.6h-11.3v-78.6H842v-78.6h-11.3V22.7V11.5z"/>
<g>
	<circle class="st0" cx="46.9" cy="40.8" r="11.3"/>
	<circle class="st0" cx="80.9" cy="40.8" r="11.3"/>
	<circle class="st0" cx="114.9" cy="40.8" r="11.3"/>
	<circle class="st0" cx="149" cy="40.8" r="11.3"/>
	<circle class="st0" cx="183" cy="40.8" r="11.3"/>
	<circle class="st0" cx="46.9" cy="74.8" r="11.3"/>
	<circle class="st0" cx="80.9" cy="74.8" r="11.3"/>
	<circle class="st0" cx="114.9" cy="74.8" r="11.3"/>
	<circle class="st0" cx="149" cy="74.8" r="11.3"/>
	<circle class="st0" cx="183" cy="74.8" r="11.3"/>
	<circle class="st0" cx="46.9" cy="109.8" r="11.3"/>
	<circle class="st0" cx="80.9" cy="109.8" r="11.3"/>
	<circle class="st0" cx="114.9" cy="109.8" r="11.3"/>
	<circle class="st0" cx="149" cy="109.8" r="11.3"/>
	<circle class="st0" cx="183" cy="109.8" r="11.3"/>
	<circle class="st0" cx="46.9" cy="143.8" r="11.3"/>
	<circle class="st0" cx="80.9" cy="143.8" r="11.3"/>
	<circle class="st0" cx="114.9" cy="143.8" r="11.3"/>
	<circle class="st0" cx="149" cy="143.8" r="11.3"/>
	<circle class="st0" cx="183" cy="143.8" r="11.3"/>
	<circle class="st0" cx="217" cy="40.8" r="11.3"/>
	<circle class="st0" cx="251" cy="40.8" r="11.3"/>
	<circle class="st0" cx="285" cy="40.8" r="11.3"/>
	<circle class="st0" cx="319" cy="40.8" r="11.3"/>
	<circle class="st0" cx="353.1" cy="40.8" r="11.3"/>
	<circle class="st0" cx="217" cy="74.8" r="11.3"/>
	<circle class="st0" cx="251" cy="74.8" r="11.3"/>
	<circle class="st0" cx="285" cy="74.8" r="11.3"/>
	<circle class="st0" cx="319" cy="74.8" r="11.3"/>
	<circle class="st0" cx="353.1" cy="74.8" r="11.3"/>
	<circle class="st0" cx="217" cy="109.8" r="11.3"/>
	<circle class="st0" cx="251" cy="109.8" r="11.3"/>
	<circle class="st0" cx="285" cy="109.8" r="11.3"/>
	<circle class="st0" cx="319" cy="109.8" r="11.3"/>
	<circle class="st0" cx="353.1" cy="109.8" r="11.3"/>
	<circle class="st0" cx="217" cy="143.8" r="11.3"/>
	<circle class="st0" cx="251" cy="143.8" r="11.3"/>
	<circle class="st0" cx="285" cy="143.8" r="11.3"/>
	<circle class="st0" cx="319" cy="143.8" r="11.3"/>
	<circle class="st0" cx="353.1" cy="143.8" r="11.3"/>
	<circle class="st0" cx="46.9" cy="177.8" r="11.3"/>
	<circle class="st0" cx="80.9" cy="177.8" r="11.3"/>
	<circle class="st0" cx="114.9" cy="177.8" r="11.3"/>
	<circle class="st0" cx="149" cy="177.8" r="11.3"/>
	<circle class="st0" cx="183" cy="177.8" r="11.3"/>
	<circle class="st0" cx="46.9" cy="211.9" r="11.3"/>
	<circle class="st0" cx="80.9" cy="211.9" r="11.3"/>
	<circle class="st0" cx="114.9" cy="211.9" r="11.3"/>
	<circle class="st0" cx="149" cy="211.9" r="11.3"/>
	<circle class="st0" cx="183" cy="211.9" r="11.3"/>
	<circle class="st0" cx="46.9" cy="246.8" r="11.3"/>
	<circle class="st0" cx="80.9" cy="246.8" r="11.3"/>
	<circle class="st0" cx="114.9" cy="246.8" r="11.3"/>
	<circle class="st0" cx="149" cy="246.8" r="11.3"/>
	<circle class="st0" cx="183" cy="246.8" r="11.3"/>
	<circle class="st0" cx="46.9" cy="280.8" r="11.3"/>
	<circle class="st0" cx="80.9" cy="280.8" r="11.3"/>
	<circle class="st0" cx="114.9" cy="280.8" r="11.3"/>
	<circle class="st0" cx="149" cy="280.8" r="11.3"/>
	<circle class="st0" cx="183" cy="280.8" r="11.3"/>
	<circle class="st0" cx="217" cy="177.8" r="11.3"/>
	<circle class="st0" cx="251" cy="177.8" r="11.3"/>
	<circle class="st0" cx="285" cy="177.8" r="11.3"/>
	<circle class="st0" cx="319" cy="177.8" r="11.3"/>
	<circle class="st0" cx="353.1" cy="177.8" r="11.3"/>
	<circle class="st0" cx="217" cy="211.9" r="11.3"/>
	<circle class="st0" cx="251" cy="211.9" r="11.3"/>
	<circle class="st0" cx="285" cy="211.9" r="11.3"/>
	<circle class="st0" cx="319" cy="211.9" r="11.3"/>
	<circle class="st0" cx="353.1" cy="211.9" r="11.3"/>
	<circle class="st0" cx="217" cy="246.8" r="11.3"/>
	<circle class="st0" cx="251" cy="246.8" r="11.3"/>
	<circle class="st0" cx="285" cy="246.8" r="11.3"/>
	<circle class="st0" cx="319" cy="246.8" r="11.3"/>
	<circle class="st0" cx="353.1" cy="246.8" r="11.3"/>
	<circle class="st0" cx="217" cy="280.8" r="11.3"/>
	<circle class="st0" cx="251" cy="280.8" r="11.3"/>
	<circle class="st0" cx="285" cy="280.8" r="11.3"/>
	<circle class="st0" cx="319" cy="280.8" r="11.3"/>
	<circle class="st0" cx="353.1" cy="280.8" r="11.3"/>
	<circle class="st0" cx="387.1" cy="40.8" r="11.3"/>
	<circle class="st0" cx="421.1" cy="40.8" r="11.3"/>
	<circle class="st0" cx="455.1" cy="40.8" r="11.3"/>
	<circle class="st0" cx="489.1" cy="40.8" r="11.3"/>
	<circle class="st0" cx="523.1" cy="40.8" r="11.3"/>
	<circle class="st0" cx="387.1" cy="74.8" r="11.3"/>
	<circle class="st0" cx="421.1" cy="74.8" r="11.3"/>
	<circle class="st0" cx="455.1" cy="74.8" r="11.3"/>
	<circle class="st0" cx="489.1" cy="74.8" r="11.3"/>
	<circle class="st0" cx="523.1" cy="74.8" r="11.3"/>
	<circle class="st0" cx="387.1" cy="109.8" r="11.3"/>
	<circle class="st0" cx="421.1" cy="109.8" r="11.3"/>
	<circle class="st0" cx="455.1" cy="109.8" r="11.3"/>
	<circle class="st0" cx="489.1" cy="109.8" r="11.3"/>
	<circle class="st0" cx="523.1" cy="109.8" r="11.3"/>
	<circle class="st0" cx="387.1" cy="143.8" r="11.3"/>
	<circle class="st0" cx="421.1" cy="143.8" r="11.3"/>
	<circle class="st0" cx="455.1" cy="143.8" r="11.3"/>
	<circle class="st0" cx="489.1" cy="143.8" r="11.3"/>
	<circle class="st0" cx="523.1" cy="143.8" r="11.3"/>
	<circle class="st0" cx="557.1" cy="40.8" r="11.3"/>
	<circle class="st0" cx="591.2" cy="40.8" r="11.3"/>
	<circle class="st0" cx="625.2" cy="40.8" r="11.3"/>
	<circle class="st0" cx="659.2" cy="40.8" r="11.3"/>
	<circle class="st0" cx="693.2" cy="40.8" r="11.3"/>
	<circle class="st0" cx="557.1" cy="74.8" r="11.3"/>
	<circle class="st0" cx="591.2" cy="74.8" r="11.3"/>
	<circle class="st0" cx="625.2" cy="74.8" r="11.3"/>
	<circle class="st0" cx="659.2" cy="74.8" r="11.3"/>
	<circle class="st0" cx="693.2" cy="74.8" r="11.3"/>
	<circle class="st0" cx="557.1" cy="109.8" r="11.3"/>
	<circle class="st0" cx="591.2" cy="109.8" r="11.3"/>
	<circle class="st0" cx="625.2" cy="109.8" r="11.3"/>
	<circle class="st0" cx="659.2" cy="109.8" r="11.3"/>
	<circle class="st0" cx="693.2" cy="109.8" r="11.3"/>
	<circle class="st0" cx="557.1" cy="143.8" r="11.3"/>
	<circle class="st0" cx="591.2" cy="143.8" r="11.3"/>
	<circle class="st0" cx="625.2" cy="143.8" r="11.3"/>
	<circle class="st0" cx="659.2" cy="143.8" r="11.3"/>
	<circle class="st0" cx="693.2" cy="143.8" r="11.3"/>
	<circle class="st0" cx="387.1" cy="177.8" r="11.3"/>
	<circle class="st0" cx="421.1" cy="177.8" r="11.3"/>
	<circle class="st0" cx="455.1" cy="177.8" r="11.3"/>
	<circle class="st0" cx="489.1" cy="177.8" r="11.3"/>
	<circle class="st0" cx="523.1" cy="177.8" r="11.3"/>
	<circle class="st0" cx="387.1" cy="211.9" r="11.3"/>
	<circle class="st0" cx="421.1" cy="211.9" r="11.3"/>
	<circle class="st0" cx="455.1" cy="211.9" r="11.3"/>
	<circle class="st0" cx="489.1" cy="211.9" r="11.3"/>
	<circle class="st0" cx="523.1" cy="211.9" r="11.3"/>
	<circle class="st0" cx="387.1" cy="246.8" r="11.3"/>
	<circle class="st0" cx="421.1" cy="246.8" r="11.3"/>
	<circle class="st0" cx="455.1" cy="246.8" r="11.3"/>
	<circle class="st0" cx="489.1" cy="246.8" r="11.3"/>
	<circle class="st0" cx="523.1" cy="246.8" r="11.3"/>
	<circle class="st0" cx="387.1" cy="280.8" r="11.3"/>
	<circle class="st0" cx="421.1" cy="280.8" r="11.3"/>
	<circle class="st0" cx="455.1" cy="280.8" r="11.3"/>
	<circle class="st0" cx="489.1" cy="280.8" r="11.3"/>
	<circle class="st0" cx="523.1" cy="280.8" r="11.3"/>
	<circle class="st0" cx="557.1" cy="177.8" r="11.3"/>
	<circle class="st0" cx="591.2" cy="177.8" r="11.3"/>
	<circle class="st0" cx="625.2" cy="177.8" r="11.3"/>
	<circle class="st0" cx="659.2" cy="177.8" r="11.3"/>
	<circle class="st0" cx="693.2" cy="177.8" r="11.3"/>
	<circle class="st0" cx="557.1" cy="211.9" r="11.3"/>
	<circle class="st0" cx="591.2" cy="211.9" r="11.3"/>
	<circle class="st0" cx="625.2" cy="211.9" r="11.3"/>
	<circle class="st0" cx="659.2" cy="211.9" r="11.3"/>
	<circle class="st0" cx="693.2" cy="211.9" r="11.3"/>
	<circle class="st0" cx="557.1" cy="246.8" r="11.3"/>
	<circle class="st0" cx="591.2" cy="246.8" r="11.3"/>
	<circle class="st0" cx="625.2" cy="246.8" r="11.3"/>
	<circle class="st0" cx="659.2" cy="246.8" r="11.3"/>
	<circle class="st0" cx="693.2" cy="246.8" r="11.3"/>
	<circle class="st0" cx="557.1" cy="280.8" r="11.3"/>
	<circle class="st0" cx="591.2" cy="280.8" r="11.3"/>
	<circle class="st0" cx="625.2" cy="280.8" r="11.3"/>
	<circle class="st0" cx="659.2" cy="280.8" r="11.3"/>
	<circle class="st0" cx="693.2" cy="280.8" r="11.3"/>
	<circle class="st0" cx="46.9" cy="314.9" r="11.3"/>
	<circle class="st0" cx="80.9" cy="314.9" r="11.3"/>
	<circle class="st0" cx="114.9" cy="314.9" r="11.3"/>
	<circle class="st0" cx="149" cy="314.9" r="11.3"/>
	<circle class="st0" cx="183" cy="314.9" r="11.3"/>
	<circle class="st0" cx="46.9" cy="348.9" r="11.3"/>
	<circle class="st0" cx="80.9" cy="348.9" r="11.3"/>
	<circle class="st0" cx="114.9" cy="348.9" r="11.3"/>
	<circle class="st0" cx="149" cy="348.9" r="11.3"/>
	<circle class="st0" cx="183" cy="348.9" r="11.3"/>
	<circle class="st0" cx="46.9" cy="383.8" r="11.3"/>
	<circle class="st0" cx="80.9" cy="383.8" r="11.3"/>
	<circle class="st0" cx="114.9" cy="383.8" r="11.3"/>
	<circle class="st0" cx="149" cy="383.8" r="11.3"/>
	<circle class="st0" cx="183" cy="383.8" r="11.3"/>
	<circle class="st0" cx="46.9" cy="417.8" r="11.3"/>
	<circle class="st0" cx="80.9" cy="417.8" r="11.3"/>
	<circle class="st0" cx="114.9" cy="417.8" r="11.3"/>
	<circle class="st0" cx="149" cy="417.8" r="11.3"/>
	<circle class="st0" cx="183" cy="417.8" r="11.3"/>
	<circle class="st0" cx="217" cy="314.9" r="11.3"/>
	<circle class="st0" cx="251" cy="314.9" r="11.3"/>
	<circle class="st0" cx="285" cy="314.9" r="11.3"/>
	<circle class="st0" cx="319" cy="314.9" r="11.3"/>
	<circle class="st0" cx="353.1" cy="314.9" r="11.3"/>
	<circle class="st0" cx="217" cy="348.9" r="11.3"/>
	<circle class="st0" cx="251" cy="348.9" r="11.3"/>
	<circle class="st0" cx="285" cy="348.9" r="11.3"/>
	<circle class="st0" cx="319" cy="348.9" r="11.3"/>
	<circle class="st0" cx="353.1" cy="348.9" r="11.3"/>
	<circle class="st0" cx="217" cy="383.8" r="11.3"/>
	<circle class="st0" cx="251" cy="383.8" r="11.3"/>
	<circle class="st0" cx="285" cy="383.8" r="11.3"/>
	<circle class="st0" cx="319" cy="383.8" r="11.3"/>
	<circle class="st0" cx="353.1" cy="383.8" r="11.3"/>
	<circle class="st0" cx="217" cy="417.8" r="11.3"/>
	<circle class="st0" cx="251" cy="417.8" r="11.3"/>
	<circle class="st0" cx="285" cy="417.8" r="11.3"/>
	<circle class="st0" cx="319" cy="417.8" r="11.3"/>
	<circle class="st0" cx="353.1" cy="417.8" r="11.3"/>
	<circle class="st0" cx="46.9" cy="451.9" r="11.3"/>
	<circle class="st0" cx="80.9" cy="451.9" r="11.3"/>
	<circle class="st0" cx="114.9" cy="451.9" r="11.3"/>
	<circle class="st0" cx="149" cy="451.9" r="11.3"/>
	<circle class="st0" cx="183" cy="451.9" r="11.3"/>
	<circle class="st0" cx="46.9" cy="485.9" r="11.3"/>
	<circle class="st0" cx="80.9" cy="485.9" r="11.3"/>
	<circle class="st0" cx="114.9" cy="485.9" r="11.3"/>
	<circle class="st0" cx="149" cy="485.9" r="11.3"/>
	<circle class="st0" cx="183" cy="485.9" r="11.3"/>
	<circle class="st0" cx="46.9" cy="520.8" r="11.3"/>
	<circle class="st0" cx="80.9" cy="520.8" r="11.3"/>
	<circle class="st0" cx="114.9" cy="520.8" r="11.3"/>
	<circle class="st0" cx="149" cy="520.8" r="11.3"/>
	<circle class="st0" cx="183" cy="520.8" r="11.3"/>
	<circle class="st0" cx="46.9" cy="554.9" r="11.3"/>
	<circle class="st0" cx="80.9" cy="554.9" r="11.3"/>
	<circle class="st0" cx="114.9" cy="554.9" r="11.3"/>
	<circle class="st0" cx="149" cy="554.9" r="11.3"/>
	<circle class="st0" cx="183" cy="554.9" r="11.3"/>
	<circle class="st0" cx="217" cy="451.9" r="11.3"/>
	<circle class="st0" cx="251" cy="451.9" r="11.3"/>
	<circle class="st0" cx="285" cy="451.9" r="11.3"/>
	<circle class="st0" cx="319" cy="451.9" r="11.3"/>
	<circle class="st0" cx="353.1" cy="451.9" r="11.3"/>
	<circle class="st0" cx="217" cy="485.9" r="11.3"/>
	<circle class="st0" cx="251" cy="485.9" r="11.3"/>
	<circle class="st0" cx="285" cy="485.9" r="11.3"/>
	<circle class="st0" cx="319" cy="485.9" r="11.3"/>
	<circle class="st0" cx="353.1" cy="485.9" r="11.3"/>
	<circle class="st0" cx="217" cy="520.8" r="11.3"/>
	<circle class="st0" cx="251" cy="520.8" r="11.3"/>
	<circle class="st0" cx="285" cy="520.8" r="11.3"/>
	<circle class="st0" cx="319" cy="520.8" r="11.3"/>
	<circle class="st0" cx="353.1" cy="520.8" r="11.3"/>
	<circle class="st0" cx="217" cy="554.9" r="11.3"/>
	<circle class="st0" cx="251" cy="554.9" r="11.3"/>
	<circle class="st0" cx="285" cy="554.9" r="11.3"/>
	<circle class="st0" cx="319" cy="554.9" r="11.3"/>
	<circle class="st0" cx="353.1" cy="554.9" r="11.3"/>
	<circle class="st0" cx="387.1" cy="314.9" r="11.3"/>
	<circle class="st0" cx="421.1" cy="314.9" r="11.3"/>
	<circle class="st0" cx="455.1" cy="314.9" r="11.3"/>
	<circle class="st0" cx="489.1" cy="314.9" r="11.3"/>
	<circle class="st0" cx="523.1" cy="314.9" r="11.3"/>
	<circle class="st0" cx="387.1" cy="348.9" r="11.3"/>
	<circle class="st0" cx="421.1" cy="348.9" r="11.3"/>
	<circle class="st0" cx="455.1" cy="348.9" r="11.3"/>
	<circle class="st0" cx="489.1" cy="348.9" r="11.3"/>
	<circle class="st0" cx="523.1" cy="348.9" r="11.3"/>
	<circle class="st0" cx="387.1" cy="383.8" r="11.3"/>
	<circle class="st0" cx="421.1" cy="383.8" r="11.3"/>
	<circle class="st0" cx="455.1" cy="383.8" r="11.3"/>
	<circle class="st0" cx="489.1" cy="383.8" r="11.3"/>
	<circle class="st0" cx="523.1" cy="383.8" r="11.3"/>
	<circle class="st0" cx="387.1" cy="417.8" r="11.3"/>
	<circle class="st0" cx="421.1" cy="417.8" r="11.3"/>
	<circle class="st0" cx="455.1" cy="417.8" r="11.3"/>
	<circle class="st0" cx="489.1" cy="417.8" r="11.3"/>
	<circle class="st0" cx="523.1" cy="417.8" r="11.3"/>
	<circle class="st0" cx="557.1" cy="314.9" r="11.3"/>
	<circle class="st0" cx="591.2" cy="314.9" r="11.3"/>
	<circle class="st0" cx="625.2" cy="314.9" r="11.3"/>
	<circle class="st0" cx="659.2" cy="314.9" r="11.3"/>
	<circle class="st0" cx="693.2" cy="314.9" r="11.3"/>
	<circle class="st0" cx="557.1" cy="348.9" r="11.3"/>
	<circle class="st0" cx="591.2" cy="348.9" r="11.3"/>
	<circle class="st0" cx="625.2" cy="348.9" r="11.3"/>
	<circle class="st0" cx="659.2" cy="348.9" r="11.3"/>
	<circle class="st0" cx="693.2" cy="348.9" r="11.3"/>
	<circle class="st0" cx="557.1" cy="383.8" r="11.3"/>
	<circle class="st0" cx="591.2" cy="383.8" r="11.3"/>
	<circle class="st0" cx="625.2" cy="383.8" r="11.3"/>
	<circle class="st0" cx="659.2" cy="383.8" r="11.3"/>
	<circle class="st0" cx="693.2" cy="383.8" r="11.3"/>
	<circle class="st0" cx="557.1" cy="417.8" r="11.3"/>
	<circle class="st0" cx="591.2" cy="417.8" r="11.3"/>
	<circle class="st0" cx="625.2" cy="417.8" r="11.3"/>
	<circle class="st0" cx="659.2" cy="417.8" r="11.3"/>
	<circle class="st0" cx="693.2" cy="417.8" r="11.3"/>
	<circle class="st0" cx="387.1" cy="451.9" r="11.3"/>
	<circle class="st0" cx="421.1" cy="451.9" r="11.3"/>
	<circle class="st0" cx="455.1" cy="451.9" r="11.3"/>
	<circle class="st0" cx="489.1" cy="451.9" r="11.3"/>
	<circle class="st0" cx="523.1" cy="451.9" r="11.3"/>
	<circle class="st0" cx="387.1" cy="485.9" r="11.3"/>
	<circle class="st0" cx="421.1" cy="485.9" r="11.3"/>
	<circle class="st0" cx="455.1" cy="485.9" r="11.3"/>
	<circle class="st0" cx="489.1" cy="485.9" r="11.3"/>
	<circle class="st0" cx="523.1" cy="485.9" r="11.3"/>
	<circle class="st0" cx="387.1" cy="520.8" r="11.3"/>
	<circle class="st0" cx="421.1" cy="520.8" r="11.3"/>
	<circle class="st0" cx="455.1" cy="520.8" r="11.3"/>
	<circle class="st0" cx="489.1" cy="520.8" r="11.3"/>
	<circle class="st0" cx="523.1" cy="520.8" r="11.3"/>
	<circle class="st0" cx="387.1" cy="554.9" r="11.3"/>
	<circle class="st0" cx="421.1" cy="554.9" r="11.3"/>
	<circle class="st0" cx="455.1" cy="554.9" r="11.3"/>
	<circle class="st0" cx="489.1" cy="554.9" r="11.3"/>
	<circle class="st0" cx="523.1" cy="554.9" r="11.3"/>
	<circle class="st0" cx="557.1" cy="451.9" r="11.3"/>
	<circle class="st0" cx="591.2" cy="451.9" r="11.3"/>
	<circle class="st0" cx="625.2" cy="451.9" r="11.3"/>
	<circle class="st0" cx="659.2" cy="451.9" r="11.3"/>
	<circle class="st0" cx="693.2" cy="451.9" r="11.3"/>
	<circle class="st0" cx="557.1" cy="485.9" r="11.3"/>
	<circle class="st0" cx="591.2" cy="485.9" r="11.3"/>
	<circle class="st0" cx="625.2" cy="485.9" r="11.3"/>
	<circle class="st0" cx="659.2" cy="485.9" r="11.3"/>
	<circle class="st0" cx="693.2" cy="485.9" r="11.3"/>
	<circle class="st0" cx="557.1" cy="520.8" r="11.3"/>
	<circle class="st0" cx="591.2" cy="520.8" r="11.3"/>
	<circle class="st0" cx="625.2" cy="520.8" r="11.3"/>
	<circle class="st0" cx="659.2" cy="520.8" r="11.3"/>
	<circle class="st0" cx="693.2" cy="520.8" r="11.3"/>
	<circle class="st0" cx="557.1" cy="554.9" r="11.3"/>
	<circle class="st0" cx="591.2" cy="554.9" r="11.3"/>
	<circle class="st0" cx="625.2" cy="554.9" r="11.3"/>
	<circle class="st0" cx="659.2" cy="554.9" r="11.3"/>
	<circle class="st0" cx="693.2" cy="554.9" r="11.3"/>
	<circle class="st0" cx="727.2" cy="40.8" r="11.3"/>
	<circle class="st0" cx="761.2" cy="40.8" r="11.3"/>
	<circle class="st0" cx="795.3" cy="40.8" r="11.3"/>
	<circle class="st0" cx="727.2" cy="74.8" r="11.3"/>
	<circle class="st0" cx="761.2" cy="74.8" r="11.3"/>
	<circle class="st0" cx="795.3" cy="74.8" r="11.3"/>
	<circle class="st0" cx="727.2" cy="109.8" r="11.3"/>
	<circle class="st0" cx="761.2" cy="109.8" r="11.3"/>
	<circle class="st0" cx="795.3" cy="109.8" r="11.3"/>
	<circle class="st0" cx="727.2" cy="143.8" r="11.3"/>
	<circle class="st0" cx="761.2" cy="143.8" r="11.3"/>
	<circle class="st0" cx="795.3" cy="143.8" r="11.3"/>
	<circle class="st0" cx="727.2" cy="177.8" r="11.3"/>
	<circle class="st0" cx="761.2" cy="177.8" r="11.3"/>
	<circle class="st0" cx="795.3" cy="177.8" r="11.3"/>
	<circle class="st0" cx="727.2" cy="211.9" r="11.3"/>
	<circle class="st0" cx="761.2" cy="211.9" r="11.3"/>
	<circle class="st0" cx="795.3" cy="211.9" r="11.3"/>
	<circle class="st0" cx="727.2" cy="246.8" r="11.3"/>
	<circle class="st0" cx="761.2" cy="246.8" r="11.3"/>
	<circle class="st0" cx="795.3" cy="246.8" r="11.3"/>
	<circle class="st0" cx="727.2" cy="280.8" r="11.3"/>
	<circle class="st0" cx="761.2" cy="280.8" r="11.3"/>
	<circle class="st0" cx="795.3" cy="280.8" r="11.3"/>
	<circle class="st0" cx="727.2" cy="314.9" r="11.3"/>
	<circle class="st0" cx="761.2" cy="314.9" r="11.3"/>
	<circle class="st0" cx="795.3" cy="314.9" r="11.3"/>
	<circle class="st0" cx="727.2" cy="348.9" r="11.3"/>
	<circle class="st0" cx="761.2" cy="348.9" r="11.3"/>
	<circle class="st0" cx="795.3" cy="348.9" r="11.3"/>
	<circle class="st0" cx="727.2" cy="383.8" r="11.3"/>
	<circle class="st0" cx="761.2" cy="383.8" r="11.3"/>
	<circle class="st0" cx="795.3" cy="383.8" r="11.3"/>
	<circle class="st0" cx="727.2" cy="417.8" r="11.3"/>
	<circle class="st0" cx="761.2" cy="417.8" r="11.3"/>
	<circle class="st0" cx="795.3" cy="417.8" r="11.3"/>
	<circle class="st0" cx="727.2" cy="451.9" r="11.3"/>
	<circle class="st0" cx="761.2" cy="451.9" r="11.3"/>
	<circle class="st0" cx="795.3" cy="451.9" r="11.3"/>
	<circle class="st0" cx="727.2" cy="485.9" r="11.3"/>
	<circle class="st0" cx="761.2" cy="485.9" r="11.3"/>
	<circle class="st0" cx="795.3" cy="485.9" r="11.3"/>
	<circle class="st0" cx="727.2" cy="520.8" r="11.3"/>
	<circle class="st0" cx="761.2" cy="520.8" r="11.3"/>
	<circle class="st0" cx="795.3" cy="520.8" r="11.3"/>
	<circle class="st0" cx="727.2" cy="554.9" r="11.3"/>
	<circle class="st0" cx="761.2" cy="554.9" r="11.3"/>
	<circle class="st0" cx="795.3" cy="554.9" r="11.3"/>
</g>
</svg>
