<?xml version="1.0" encoding="utf-8"?>
<!-- Generator: Adobe Illustrator 24.0.0, SVG Export Plug-In . SVG Version: 6.00 Build 0)  -->
<svg version="1.1" id="Calque_1" xmlns="http://www.w3.org/2000/svg" xmlns:xlink="http://www.w3.org/1999/xlink" x="0px" y="0px"
	 viewBox="0 0 428.1 344.2" style="enable-background:new 0 0 428.1 344.2;" xml:space="preserve">
<style type="text/css">
	.st0{fill:none;stroke:#FF0000;stroke-miterlimit:10;}
</style>
<g>
	<polyline class="st0" points="24.7,17.5 33.6,33.7 48.2,19.1 32.1,10 	"/>
	<g>
		<path class="st0" d="M1.2,40.8h100.6C108.2,58.9,156,73,214,73s105.8-14.1,112.2-32.2h100.6L386.7,0.5h-345L1.2,40.8z"/>
		<polygon class="st0" points="396.2,10 380,19.1 394.6,33.7 403.6,17.5 		"/>
	</g>
</g>
<g>
	<polyline class="st0" points="403.4,105.7 394.4,122 379.8,107.4 396,98.3 	"/>
	<g>
		<path class="st0" d="M426.8,129H326.2c-6.4,18.1-54.2,32.2-112.2,32.2S108.2,147.2,101.9,129H1.2l40.2-40.3h345L426.8,129z"/>
		<polygon class="st0" points="31.9,98.3 48,107.4 33.5,122 24.5,105.7 		"/>
	</g>
</g>
<g>
	<polyline class="st0" points="24.7,200 33.6,216.2 48.2,201.7 32.1,192.5 	"/>
	<g>
		<path class="st0" d="M1.2,223.3h100.6c6.4,18.1,54.2,32.2,112.2,32.2s105.8-14.1,112.2-32.2h100.6L386.7,183h-345L1.2,223.3z"/>
		<polygon class="st0" points="396.2,192.5 380,201.7 394.6,216.2 403.6,200 		"/>
	</g>
</g>
<g>
	<polyline class="st0" points="403.4,288.2 394.4,304.5 379.8,289.9 396,280.8 	"/>
	<g>
		<path class="st0" d="M426.8,311.6H326.2c-6.4,18.1-54.2,32.2-112.2,32.2s-105.8-14.1-112.2-32.2H1.2l40.2-40.3h345L426.8,311.6z"
			/>
		<polygon class="st0" points="31.9,280.8 48,289.9 33.5,304.5 24.5,288.2 		"/>
	</g>
</g>
</svg>
