<?xml version="1.0" encoding="utf-8"?>
<!-- Generator: Adobe Illustrator 24.0.0, SVG Export Plug-In . SVG Version: 6.00 Build 0)  -->
<svg version="1.1" id="Calque_1" xmlns="http://www.w3.org/2000/svg" xmlns:xlink="http://www.w3.org/1999/xlink" x="0px" y="0px"
	 viewBox="0 0 567 204.3" style="enable-background:new 0 0 567 204.3;" xml:space="preserve">
<style type="text/css">
	.st0{fill:none;stroke:#FF0000;stroke-miterlimit:10;}
</style>
<g>
	<polyline class="st0" points="24.9,23.8 33.9,7.5 48.4,22.1 32.3,31.2 41.5,40.7 1.2,0.5 565.8,0.5 525.5,40.7 41.5,40.7 	"/>
	<polyline class="st0" points="542.5,23.8 533.5,7.5 518.9,22.1 535,31.2 	"/>
</g>
<g>
	<polyline class="st0" points="24.9,71.8 33.9,88 48.4,73.5 32.3,64.3 41.5,54.9 1.2,95 565.8,95 525.5,54.9 41.5,54.9 	"/>
	<polyline class="st0" points="542.5,71.8 533.5,88 518.9,73.5 535,64.3 	"/>
</g>
<g>
	<polyline class="st0" points="24.9,132.5 33.9,116.2 48.4,130.8 32.3,139.9 41.5,149.4 1.2,109.2 565.8,109.2 525.5,149.4 
		41.5,149.4 	"/>
	<polyline class="st0" points="542.5,132.5 533.5,116.2 518.9,130.8 535,139.9 	"/>
</g>
<g>
	<polyline class="st0" points="24.9,180.5 33.9,196.8 48.4,182.2 32.3,173.1 41.5,163.6 1.2,203.8 565.8,203.8 525.5,163.6 
		41.5,163.6 	"/>
	<polyline class="st0" points="542.5,180.5 533.5,196.8 518.9,182.2 535,173.1 	"/>
</g>
</svg>
